# xmcd CD database file
#
# Track frame offsets:
#	183
#	21155
#	38508
#	55143
#	88695
#	107580
#	121858
#	140100
#	162183
#	180820
#	199063
#	211120
#	218113
#	229543
#
# Disc length: 3291 seconds
#
# Revision: 0
# Processed by: cddbd v1.4PL0 Copyright (c) Steve Scherf et al.
# Submitted via: CDex 1.50
#
DISCID=b00cd90e
DTITLE=Gino plays the Blues - Gino Marinello
DYEAR=1991
DGENRE=Blues
TTITLE0=Still got the Blues
TTITLE1=Need your love so Bad
TTITLE2=I'd rather go Blind
TTITLE3=Since I've been Loving You too Long
TTITLE4=Red House
TTITLE5=How Blue Can You get
TTITLE6=For Miss Caulker
TTITLE7=I ain't got no Money
TTITLE8=When Love comes to Town
TTITLE9=Peaches and Diesel
TTITLE10=Play the Blues
TTITLE11=Jigsaw Puzzle
TTITLE12=How many more Nights
TTITLE13=Crossroads
EXTD=YEAR: 1991
EXTT0=
EXTT1=
EXTT2=
EXTT3=
EXTT4=
EXTT5=
EXTT6=
EXTT7=
EXTT8=
EXTT9=
EXTT10=
EXTT11=
EXTT12=
EXTT13=
PLAYORDER=
